<?xml version="1.0" encoding="UTF-8" standalone="no"?> <svg width="64" height="64" viewBox="0 0 64 64" fill="none" xmlns="http://www.w3.org/2000/svg">
<path d="M62 9C62 8.45 61.55 8 61 8H58C57.45 8 57 8.45 57 9C57 9.55 57.45 10 58 10H61C61.55 10 62 9.55 62 9Z" fill="black"/>
<path d="M60.89 14.45C61.14 13.95 60.94 13.35 60.45 13.11L58.45 12.11C57.95 11.86 57.35 12.06 57.11 12.55C56.86 13.05 57.06 13.65 57.55 13.89L59.55 14.89C59.7 14.97 59.85 15 60 15C60.37 15 60.72 14.8 60.89 14.45Z" fill="black"/>
<path d="M57.71 6.71L59.71 4.71C60.1 4.32 60.1 3.68 59.71 3.29C59.32 2.9 58.68 2.9 58.29 3.29L56.29 5.29C55.9 5.68 55.9 6.32 56.29 6.71C56.49 6.9 56.74 7 57 7C57.26 7 57.51 6.9 57.71 6.71Z" fill="black"/>
<path d="M55.55 15.11C55.06 15.35 54.86 15.95 55.11 16.45L56.11 18.45C56.28 18.8 56.63 19 57 19C57.15 19 57.3 18.97 57.45 18.89C57.94 18.65 58.14 18.05 57.89 17.55L56.89 15.55C56.65 15.06 56.05 14.86 55.55 15.11Z" fill="black"/>
<path d="M60 39C60 32.27 56.1 26.27 50 23.51V18C50 17.45 49.55 17 49 17H46.13C46.24 16.58 46.41 16.19 46.64 15.84C46.65 15.83 46.65 15.82 46.66 15.81C46.67 15.8 46.67 15.78 46.68 15.77C46.99 15.31 47.39 14.92 47.85 14.63C47.89 14.62 47.92 14.61 47.95 14.59C48.02 14.55 48.09 14.51 48.15 14.46C48.7 14.17 49.33 14 50 14H52C53.65 14 55 12.65 55 11C55 9.35 53.65 8 52 8H50C48.29 8 46.67 8.43 45.26 9.2C43.7 10.04 42.38 11.3 41.45 12.82V12.83C40.69 14.07 40.2 15.48 40.05 17H37C36.45 17 36 17.45 36 18V23.51C35.08 23.93 34.21 24.42 33.39 24.99L32.51 24.15L32.54 24.12C33.31 23.34 33.32 22.07 32.54 21.29L29.71 18.46C28.93 17.68 27.66 17.69 26.88 18.46L26.54 18.8L25 18.28V18C25 16.9 24.1 16 23 16H19C17.9 16 17 16.9 17 18V18.28L15.45 18.79L15.12 18.46C14.34 17.69 13.07 17.69 12.29 18.46L9.46 21.29C8.68 22.07 8.69 23.34 9.46 24.12L9.62 24.28L8.47 26H8C6.9 26 6 26.9 6 28V32C6 33.1 6.9 34 8 34V35.18C6.84 35.59 6 36.7 6 38V38.61L2.84 39.13C2.29 39.21 1.92 39.73 2.01 40.27C2.09 40.76 2.52 41.11 3 41.11C3.05 41.11 3.11 41.11 3.16 41.1L6 40.64V51.33L2.9 51.65C2.35 51.71 1.95 52.2 2.01 52.75C2.06 53.26 2.49 53.64 3 53.64C3.03 53.64 3.07 53.64 3.1 53.64L6 53.34V54C6 55.65 7.35 57 9 57C10.65 57 12 55.65 12 54V52.78C14.54 52.75 17.04 53.36 19.28 54.57L31.5 61.16C32.54 61.72 33.67 62 34.82 62C35.4 62 35.97 61.93 36.54 61.79L48.12 58.86C50.28 58.32 51.64 56.26 51.23 54.17C51.21 54.07 51.19 53.97 51.16 53.88C56.56 50.93 60 45.18 60 39ZM49 10.07V12.09C48.64 12.14 48.29 12.24 47.96 12.36L47.06 10.56C47.67 10.31 48.32 10.15 49 10.07ZM45.3 11.53L46.22 13.36C45.97 13.55 45.74 13.77 45.53 14.01L43.76 13C44.21 12.45 44.72 11.95 45.3 11.53ZM42.72 14.7L44.46 15.7C44.29 16.11 44.16 16.55 44.08 17H42.06C42.16 16.19 42.39 15.42 42.72 14.7ZM27.48 20.7L28.29 19.88L31.12 22.71L30.36 23.47L29.71 24.12L26.88 21.29L27.48 20.7ZM19 19V18H23V19V20H19V19ZM13.71 19.88L14.55 20.72L15.12 21.29L12.29 24.12L11.68 23.51L10.88 22.71L13.71 19.88ZM8 28H9H10V32H9H8V28ZM10 51.88V54C10 54.55 9.55 55 9 55C8.45 55 8 54.55 8 54V52.25V39.48V38C8 37.45 8.45 37 9 37C9.55 37 10 37.45 10 38V51.88ZM11.97 37.64C11.84 36.5 11.05 35.55 10 35.18V34C11.1 34 12 33.1 12 32V28C12 27.17 11.48 26.45 10.76 26.15L11.07 25.7C11.43 25.98 11.86 26.12 12.29 26.12C12.8 26.12 13.32 25.93 13.71 25.54L16.54 22.71C17.16 22.09 17.28 21.17 16.92 20.42L17.04 20.38C17.22 21.3 18.03 22 19 22H23C23.97 22 24.79 21.3 24.96 20.37L25.08 20.41C24.72 21.16 24.84 22.09 25.46 22.71L28.29 25.54C28.68 25.93 29.2 26.12 29.71 26.12C30.21 26.12 30.71 25.94 31.1 25.56L31.79 26.22C28.16 29.38 26 33.99 26 39C26 39.35 26.01 39.7 26.04 40.05C25.85 39.94 25.66 39.83 25.47 39.73C21.53 37.61 16.93 36.83 12.52 37.55L11.97 37.64ZM47.63 56.92L36.05 59.85C34.84 60.16 33.56 60 32.45 59.4L20.23 52.81C17.7 51.44 14.87 50.74 12 50.77V39.67L12.84 39.53C16.82 38.88 20.97 39.58 24.52 41.49C25.09 41.8 25.64 42.14 26.17 42.5C26.52 42.74 26.86 42.99 27.19 43.25L33.71 48.4C34.14 48.74 34.41 49.24 34.46 49.79C34.51 50.33 34.34 50.85 33.98 51.27C33.95 51.3 33.92 51.33 33.89 51.36C33.18 52.08 31.96 52.11 31.09 51.43L25.77 47.23C25.34 46.88 24.71 46.96 24.37 47.39C24.03 47.82 24.1 48.45 24.53 48.79L29.85 53C30.65 53.63 31.58 53.93 32.5 53.93C33.28 53.93 34.03 53.72 34.68 53.29L36.64 54.57C37.34 55.03 38.21 55.18 39.02 54.97L46.81 53C47.35 52.87 47.91 52.96 48.37 53.25C48.84 53.55 49.16 54.01 49.27 54.56C49.47 55.58 48.74 56.64 47.63 56.92ZM43.13 36C45.02 36.04 46.74 36.84 47.99 38.1C49.23 39.37 50 41.1 50 43C50 45.72 48.41 48.18 45.98 49.33C45.89 50.22 45.4 50.99 44.7 51.47L42.67 51.98C41.28 51.83 40.17 50.72 40.02 49.33C37.59 48.18 36 45.72 36 43C36 42.45 36.45 42 37 42H41C41.55 42 42 42.45 42 43C42 43.55 42.45 44 43 44C43.55 44 44 43.55 44 43C44 42.72 43.89 42.46 43.68 42.27C43.47 42.07 43.2 41.98 42.92 42C40.76 42.17 38.88 41.41 37.76 39.92C36.12 37.74 35.6 35.28 36.3 32.99C36.87 31.09 38.23 29.52 40.02 28.68C40.18 27.17 41.46 26 43 26C44.54 26 45.82 27.17 45.98 28.67C48.41 29.82 50 32.28 50 35C50 35.55 49.55 36 49 36H45C44.45 36 44 35.55 44 35C44 34.45 43.55 34 43 34C42.71 34 42.44 34.12 42.25 34.34C42.06 34.56 41.97 34.84 42.01 35.13C42.07 35.66 42.63 35.99 43.13 36Z" fill="black"/>
<path d="M54 5V3C54 2.45 53.55 2 53 2C52.45 2 52 2.45 52 3V5C52 5.55 52.45 6 53 6C53.55 6 54 5.55 54 5Z" fill="black"/>
<path d="M43 32C44.3 32 45.42 32.84 45.83 34H47.9C47.55 32.31 46.34 30.89 44.67 30.29C44.27 30.15 44 29.77 44 29.35V29C44 28.45 43.55 28 43 28C42.45 28 42 28.45 42 29V29.35C42 29.77 41.73 30.15 41.33 30.29C39.83 30.83 38.67 32.05 38.21 33.57C37.71 35.23 38.12 37.06 39.36 38.72C40.06 39.65 41.3 40.12 42.77 40.01C43.59 39.94 44.43 40.23 45.04 40.8C45.65 41.37 46 42.17 46 43C46 44.65 44.65 46 43 46C41.7 46 40.58 45.16 40.17 44H38.1C38.45 45.69 39.66 47.11 41.33 47.71C41.73 47.85 42 48.23 42 48.65V49C42 49.55 42.45 50 43 50C43.55 50 44 49.55 44 49V48.65C44 48.23 44.27 47.85 44.67 47.71C46.66 47 48 45.11 48 43C48 40.29 45.8 38.05 43.1 38C42.32 37.98 41.59 37.7 41.04 37.23C40.49 36.76 40.12 36.11 40.02 35.38C39.92 34.52 40.18 33.66 40.75 33.01C41.32 32.37 42.14 32 43 32Z" fill="black"/>
</svg>
