<?xml version="1.0" encoding="iso-8859-1"?>
<!-- Generator: Adobe Illustrator 23.0.6, SVG Export Plug-In . SVG Version: 6.00 Build 0)  -->
<svg version="1.1" id="Layer_1_1_" xmlns="http://www.w3.org/2000/svg" xmlns:xlink="http://www.w3.org/1999/xlink" x="0px" y="0px"
	 viewBox="0 0 64 64" style="enable-background:new 0 0 64 64;" xml:space="preserve">
<path d="M48,50.759c0-1.154-0.507-2.242-1.392-2.984c-0.884-0.741-2.042-1.053-3.18-0.852c-0.054,0.009-0.107,0.023-0.159,0.041
	l-10.74,3.789l-3.453-2.226C28.576,48.182,27.989,48,27.38,48H21c0-0.553-0.448-1-1-1h-4c-0.552,0-1,0.447-1,1v13
	c0,0.553,0.448,1,1,1h4c0.552,0,1-0.447,1-1v-1.692h2.764l6.752,3.376c0.422,0.211,0.882,0.315,1.34,0.315
	c0.583,0,1.165-0.169,1.665-0.503l12.745-8.497C47.352,53.276,48,52.064,48,50.759z M19,60h-2V49h2V60z M45.156,52.335
	l-12.746,8.497c-0.298,0.198-0.683,0.222-1.001,0.062l-6.962-3.481c-0.139-0.069-0.292-0.105-0.447-0.105h-3V50h6.38
	c0.203,0,0.398,0.061,0.589,0.191l5.084,3.279c0.34,0.314,0.404,0.829,0.144,1.219c-0.28,0.422-0.842,0.549-1.275,0.287
	l-3.408-2.045l-1.029,1.715l3.409,2.045c0.475,0.285,0.998,0.421,1.515,0.421c0.954,0,1.886-0.464,2.453-1.313
	c0.768-1.152,0.618-2.652-0.307-3.639l9.294-3.279c0.528-0.072,1.062,0.081,1.475,0.426C45.753,49.668,46,50.197,46,50.759
	C46,51.394,45.685,51.983,45.156,52.335z"/>
<path d="M21,36c0,6.065,4.935,11,11,11s11-4.935,11-11s-4.935-11-11-11S21,29.935,21,36z M32,27c4.962,0,9,4.037,9,9s-4.038,9-9,9
	s-9-4.037-9-9S27.038,27,32,27z"/>
<path d="M33,40h-2c-0.551,0-1-0.448-1-1h-2c0,1.654,1.346,3,3,3v1h2v-1c1.654,0,3-1.346,3-3v-1c0-1.654-1.346-3-3-3h-2
	c-0.551,0-1-0.448-1-1v-1c0-0.552,0.449-1,1-1h2c0.551,0,1,0.448,1,1h2c0-1.654-1.346-3-3-3v-1h-2v1c-1.654,0-3,1.346-3,3v1
	c0,1.654,1.346,3,3,3h2c0.551,0,1,0.448,1,1v1C34,39.552,33.551,40,33,40z"/>
<path d="M35,4c0-1.654-1.346-3-3-3s-3,1.346-3,3s1.346,3,3,3S35,5.654,35,4z M31,4c0-0.552,0.449-1,1-1s1,0.448,1,1s-0.449,1-1,1
	S31,4.552,31,4z"/>
<path d="M28.13,15.493C28.307,15.807,28.64,16,29,16h2v7h2v-7h2c0.36,0,0.693-0.193,0.87-0.507c0.178-0.314,0.173-0.699-0.013-1.008
	l-3-5c-0.361-0.602-1.354-0.602-1.715,0l-3,5C27.957,14.794,27.952,15.179,28.13,15.493z M32,11.943L33.234,14h-2.468L32,11.943z"/>
<path d="M56.556,11.443c-1.17-1.17-3.072-1.17-4.242,0s-1.17,3.073,0,4.243c0.585,0.585,1.353,0.877,2.121,0.877
	s1.536-0.292,2.121-0.877C57.726,14.517,57.726,12.613,56.556,11.443z M55.142,14.272c-0.39,0.389-1.024,0.389-1.414,0
	c-0.39-0.391-0.39-1.024,0-1.415c0.195-0.194,0.451-0.292,0.707-0.292s0.512,0.098,0.707,0.292
	C55.532,13.247,55.532,13.882,55.142,14.272z"/>
<path d="M41.707,27.707l4.95-4.95l1.415,1.415c0.19,0.19,0.445,0.293,0.707,0.293c0.089,0,0.179-0.012,0.267-0.036
	c0.347-0.097,0.616-0.372,0.703-0.722l1.414-5.657c0.085-0.341-0.015-0.701-0.263-0.949s-0.607-0.349-0.95-0.263l-5.657,1.414
	c-0.349,0.087-0.625,0.355-0.721,0.703c-0.096,0.347,0.002,0.719,0.257,0.974l1.414,1.414l-4.95,4.95L41.707,27.707z M48.818,19.182
	l-0.582,2.327l-1.745-1.745L48.818,19.182z"/>
<path d="M6.444,11.443c-1.17,1.17-1.17,3.073,0,4.243c0.585,0.585,1.353,0.877,2.121,0.877s1.536-0.292,2.121-0.877
	c1.17-1.17,1.17-3.073,0-4.243S7.614,10.273,6.444,11.443z M9.272,14.272c-0.389,0.389-1.024,0.389-1.414,0
	c-0.39-0.391-0.39-1.025,0-1.415c0.39-0.389,1.024-0.389,1.414,0C9.662,13.248,9.662,13.882,9.272,14.272z"/>
<path d="M19.428,18.955c-0.096-0.348-0.372-0.616-0.721-0.703l-5.657-1.414c-0.339-0.085-0.701,0.015-0.95,0.263
	c-0.249,0.248-0.348,0.608-0.263,0.949l1.414,5.657c0.087,0.35,0.356,0.625,0.703,0.722c0.088,0.024,0.178,0.036,0.267,0.036
	c0.262,0,0.517-0.103,0.707-0.293l1.415-1.415l4.95,4.95l1.414-1.414l-4.95-4.95l1.414-1.414
	C19.426,19.674,19.524,19.302,19.428,18.955z M14.764,21.509l-0.582-2.327l2.326,0.582L14.764,21.509z"/>
<path d="M60,34c-1.654,0-3,1.346-3,3s1.346,3,3,3s3-1.346,3-3S61.654,34,60,34z M60,38c-0.551,0-1-0.448-1-1s0.449-1,1-1
	s1,0.448,1,1S60.551,38,60,38z"/>
<path d="M48.507,40.87C48.66,40.957,48.83,41,49,41c0.178,0,0.356-0.048,0.515-0.143l5-3C54.816,37.677,55,37.352,55,37
	s-0.184-0.677-0.485-0.857l-5-3c-0.309-0.186-0.694-0.19-1.007-0.013S48,33.64,48,34v2h-3v2h3v2
	C48,40.36,48.194,40.692,48.507,40.87z M50,35.767L52.056,37L50,38.233V35.767z"/>
<path d="M7,37c0-1.654-1.346-3-3-3s-3,1.346-3,3s1.346,3,3,3S7,38.654,7,37z M3,37c0-0.552,0.449-1,1-1s1,0.448,1,1s-0.449,1-1,1
	S3,37.552,3,37z"/>
<path d="M9,37c0,0.352,0.184,0.677,0.485,0.857l5,3C14.644,40.952,14.822,41,15,41c0.17,0,0.34-0.043,0.493-0.13
	C15.806,40.692,16,40.36,16,40v-2h3v-2h-3v-2c0-0.36-0.194-0.692-0.507-0.87c-0.313-0.178-0.698-0.173-1.007,0.013l-5,3
	C9.184,36.323,9,36.648,9,37z M14,35.767v2.467L11.944,37L14,35.767z"/>
</svg>
