<?xml version="1.0" encoding="UTF-8" standalone="no"?> <svg id="a363b634-e41f-47d3-83ef-377a9be2e4f4" data-name="Layer 2" xmlns="http://www.w3.org/2000/svg" viewBox="0 0 64 64"><path d="M42,8a12.994,12.994,0,0,0-9.67,21.68,13.416,13.416,0,0,0,1.44,1.38A12.983,12.983,0,0,0,49,31.95a12.39,12.39,0,0,0,1.86-1.45A12.991,12.991,0,0,0,42,8Zm0,23A10,10,0,1,1,52,21,10.016,10.016,0,0,1,42,31Z"/><path d="M42,13a8,8,0,1,0,8,8A8.011,8.011,0,0,0,42,13Zm1,13v1a1,1,0,0,1-2,0V26H39.12a1,1,0,0,1,0-2H43a1,1,0,0,0,1-1,.928.928,0,0,0-.29-.69A.949.949,0,0,0,43,22H41a3,3,0,0,1-3-3,3.009,3.009,0,0,1,3-3V15a1,1,0,0,1,2,0v1h1.88a1,1,0,0,1,0,2H41a1,1,0,0,0-1,1,.928.928,0,0,0,.29.69A.949.949,0,0,0,41,20h2a3,3,0,0,1,3,3A3.009,3.009,0,0,1,43,26Z"/><path d="M32.5,32.6A14.89,14.89,0,0,0,41,35.96V54H34.89V36.89a1,1,0,0,0-2,0V54H28V42.26a1,1,0,1,0-2,0V54H19V51.07a1,1,0,1,0-2,0V54H10V48.81l8.22-1.83a1.014,1.014,0,0,0,.73-.66l1.86-5.58,6.58-2.82a1.072,1.072,0,0,0,.35-.25l4.68-5.13C32.45,32.56,32.47,32.58,32.5,32.6Z"/><path d="M49,34.26V54H43V35.96A14.6,14.6,0,0,0,49,34.26Z"/></svg>