<?xml version="1.0" encoding="iso-8859-1"?>
<!-- Generator: Adobe Illustrator 19.0.0, SVG Export Plug-In . SVG Version: 6.00 Build 0)  -->
<svg version="1.1" id="Capa_1" xmlns="http://www.w3.org/2000/svg" xmlns:xlink="http://www.w3.org/1999/xlink" x="0px" y="0px"
	 viewBox="0 0 512 512" style="enable-background:new 0 0 512 512;" xml:space="preserve">
<g>
	<g>
		<path d="M416,352c-5.52,0-10,4.48-10,10c0,5.52,4.48,10,10,10c5.52,0,10-4.48,10-10C426,356.48,421.52,352,416,352z"/>
	</g>
</g>
<g>
	<g>
		<path d="M256,352c-5.52,0-10,4.48-10,10c0,5.52,4.48,10,10,10s10-4.48,10-10C266,356.48,261.52,352,256,352z"/>
	</g>
</g>
<g>
	<g>
		<path d="M76,106c-5.52,0-10,4.48-10,10s4.48,10,10,10s10-4.48,10-10S81.52,106,76,106z"/>
	</g>
</g>
<g>
	<g>
		<path d="M454.743,301.362c-16.373-27.55-36.631-49.257-58.584-63.149c0.357-0.325,0.708-0.658,1.052-1.001
			C402.879,231.543,406,224.01,406,216c0-3.904-0.758-7.633-2.121-11.057C416.61,201.473,426,189.815,426,176
			c0-7.457-2.708-14.499-7.655-20.009C423.101,150.68,426,143.673,426,136c0-7.453-2.705-14.491-7.647-20
			c4.942-5.509,7.647-12.547,7.647-20c0-16.542-13.458-30-30-30h-22.473l12.224-53.784c0.675-2.966-0.038-6.078-1.936-8.455
			C381.918,1.384,379.042,0,376,0h-80c-3.042,0-5.918,1.385-7.815,3.762c-1.898,2.377-2.61,5.489-1.936,8.456l3.567,15.694
			l-23.467,11.734c-10.798,5.399-20.602,12.465-29.139,21.003c-13.968,13.966-31.873,22.549-51.21,24.76V76c0-5.523-4.477-10-10-10
			H36c-5.523,0-10,4.477-10,10v160c0,5.523,4.477,10,10,10h140c5.523,0,10-4.477,10-10v-10h3.68c16.385,0,32.578,2.627,48.125,7.806
			c10.552,3.521,21.323,6.287,32.234,8.29c-19.715,13.911-37.862,34.161-52.781,59.266C197.685,334.296,186,371.918,186,402
			c0,33.631,14.455,61.732,41.802,81.267C254.117,502.064,291.531,512,336,512s81.883-9.936,108.197-28.733
			C471.545,463.732,486,435.631,486,402C486,371.917,474.315,334.296,454.743,301.362z M166,106h-50c-5.523,0-10,4.477-10,10
			s4.477,10,10,10h50v100H46V86h120V106z M363.473,20l-10.455,46h-34.035l-10.454-46H363.473z M244.131,214.833
			C226.537,208.972,208.217,206,189.68,206H186V105.534c24.69-2.282,47.601-12.993,65.352-30.743
			c7.015-7.015,15.069-12.821,23.94-17.257l19.087-9.543L298.472,66H296c-5.522,0-10,4.477-10,10s4.478,10,10,10
			c21.954,0,78.309,0,100,0c5.514,0,10,4.486,10,10c0,2.668-1.041,5.179-2.931,7.068c-1.89,1.891-4.401,2.932-7.069,2.932h-40
			c-5.522,0-10,4.477-10,10s4.478,10,10,10h40c5.521,0,10,4.479,10,10c0,5.514-4.486,10-10,10h-40c-5.522,0-10,4.477-10,10
			s4.478,10,10,10h40c5.521,0,10,4.479,10,10c0,5.514-4.486,10-10,10c-13.99,0-26.01,0-40,0c-5.522,0-10,4.477-10,10s4.478,10,10,10
			h20c5.514,0,10,4.486,10,10c0,5.522-4.479,10-10,10h-63.08c-3.141,0-6.402-0.074-9.697-0.22
			C283.115,224.89,263.236,221.208,244.131,214.833z M432.572,466.993C409.67,483.353,376.275,492,336,492
			c-40.275,0-73.67-8.647-96.573-25.007C217.559,451.372,206,428.898,206,402c0-26.642,10.636-60.443,28.45-90.42
			c19.44-32.71,44.446-55.995,70.53-65.731c2.687,0.09,5.354,0.151,7.939,0.151h54.503c25.94,9.825,50.788,33.038,70.128,65.58
			C455.364,341.556,466,375.358,466,402C466,428.898,454.441,451.372,432.572,466.993z"/>
	</g>
</g>
<g>
	<g>
		<path d="M341.178,353.875c-14.907-7.879-24.678-13.609-24.678-21.165c0-11.028,8.972-20,20-20s20,8.972,20,20
			c0,5.523,4.478,10,10,10c5.522,0,10-4.477,10-10c0-18.604-12.767-34.282-30-38.734V282.71c0-5.523-4.478-10-10-10
			c-5.522,0-10,4.477-10,10v11.266c-17.233,4.452-30,20.13-30,38.734c0,20.171,18.771,30.093,35.331,38.847
			c14.901,7.877,24.669,13.604,24.669,21.153c0,11.028-8.972,20-20,20s-20-8.972-20-20c0-5.523-4.478-10-10-10
			c-5.522,0-10,4.477-10,10c0,18.604,12.767,34.282,30,38.734v11.266c0,5.523,4.478,10,10,10c5.522,0,10-4.477,10-10v-11.266
			c17.233-4.452,30-20.13,30-38.734C376.5,372.546,357.734,362.627,341.178,353.875z"/>
	</g>
</g>
<g>
</g>
<g>
</g>
<g>
</g>
<g>
</g>
<g>
</g>
<g>
</g>
<g>
</g>
<g>
</g>
<g>
</g>
<g>
</g>
<g>
</g>
<g>
</g>
<g>
</g>
<g>
</g>
<g>
</g>
</svg>
